<svg xmlns="http://www.w3.org/2000/svg" viewBox="0 0 483.49 174.56"><g id="Capa_2" data-name="Capa 2"><g id="Capa_1-2" data-name="Capa 1"><polygon points="314.35 7.14 483.49 0 483.49 17.15 314.35 10.01 314.35 7.14" style="fill:#fff"/><polygon points="114.1 7.14 283.23 0 283.23 17.15 114.1 10.01 114.1 7.14" style="fill:#fff"/><polygon points="314.35 46.6 483.49 39.46 483.49 56.62 314.35 49.48 314.35 46.6" style="fill:#fff"/><polygon points="314.35 26.87 483.49 19.73 483.49 36.88 314.35 29.75 314.35 26.87" style="fill:#fff"/><polygon points="114.1 46.6 283.23 39.46 283.23 56.62 114.1 49.48 114.1 46.6" style="fill:#fff"/><polygon points="114.1 26.87 283.23 19.73 283.23 36.88 114.1 29.75 114.1 26.87" style="fill:#fff"/><polygon points="0 167.88 109.13 163.12 109.13 174.56 0 169.8 0 167.88" style="fill:#fff"/><polygon points="0 150.97 109.13 146.21 109.13 157.66 0 152.89 0 150.97" style="fill:#fff"/><polygon points="0 133.3 109.13 127.99 109.13 140.75 0 135.44 0 133.3" style="fill:#fff"/><polygon points="314.35 66.77 428.05 62.6 428.05 72.62 314.35 68.45 314.35 66.77" style="fill:#fff"/><polygon points="314.35 107.16 428.05 102.99 428.05 113 314.35 108.84 314.35 107.16" style="fill:#fff"/><polygon points="314.35 86.97 428.05 82.8 428.05 92.81 314.35 88.64 314.35 86.97" style="fill:#fff"/><polygon points="314.35 123.89 370.25 120.69 370.25 128.37 314.35 125.17 314.35 123.89" style="fill:#fff"/><polygon points="314.35 170.08 370.25 166.89 370.25 174.56 314.35 171.37 314.35 170.08" style="fill:#fff"/><polygon points="314.35 146.98 370.25 143.79 370.25 151.47 314.35 148.27 314.35 146.98" style="fill:#fff"/><polygon points="166.74 66.77 223.59 62.6 223.59 72.62 166.74 68.45 166.74 66.77" style="fill:#fff"/><polygon points="166.74 78.38 223.59 74.89 223.59 83.28 166.74 79.79 166.74 78.38" style="fill:#fff"/><polygon points="166.74 90.23 223.59 86.86 223.59 94.96 166.74 91.59 166.74 90.23" style="fill:#fff"/><polygon points="166.74 102.44 223.59 99.54 223.59 106.5 166.74 103.6 166.74 102.44" style="fill:#fff"/><polygon points="166.74 114.48 223.59 112.14 223.59 117.76 166.74 115.42 166.74 114.48" style="fill:#fff"/><polygon points="166.74 126.15 223.59 124.65 223.59 128.25 166.74 126.75 166.74 126.15" style="fill:#fff"/><polygon points="166.74 138.62 223.59 137.12 223.59 140.72 166.74 139.22 166.74 138.62" style="fill:#fff"/><polygon points="166.74 150.27 223.59 149.08 223.59 151.93 166.74 150.75 166.74 150.27" style="fill:#fff"/><polygon points="166.74 162.63 223.59 161.69 223.59 163.95 166.74 163.01 166.74 162.63" style="fill:#fff"/><polygon points="166.74 173.25 223.59 172.78 223.59 173.91 166.74 173.44 166.74 173.25" style="fill:#fff"/><polygon points="0 4.17 56.85 0 56.85 10.01 0 5.85 0 4.17" style="fill:#fff"/><polygon points="0 15.78 56.85 12.28 56.85 20.68 0 17.19 0 15.78" style="fill:#fff"/><polygon points="0 27.63 56.85 24.26 56.85 32.36 0 28.99 0 27.63" style="fill:#fff"/><polygon points="0 39.84 56.85 36.94 56.85 43.9 0 41 0 39.84" style="fill:#fff"/><polygon points="0 51.88 56.85 49.54 56.85 55.16 0 52.82 0 51.88" style="fill:#fff"/><polygon points="0 66.54 56.85 65.05 56.85 68.64 0 67.15 0 66.54" style="fill:#fff"/><polygon points="0 79.02 56.85 77.52 56.85 81.12 0 79.62 0 79.02" style="fill:#fff"/><polygon points="0 91.67 56.85 90.48 56.85 93.33 0 92.14 0 91.67" style="fill:#fff"/><polygon points="0 104.03 56.85 103.09 56.85 105.34 0 104.41 0 104.03" style="fill:#fff"/><polygon points="0 113.65 56.85 113.18 56.85 114.31 0 113.84 0 113.65" style="fill:#fff"/><polygon points="0 124.21 56.85 123.86 56.85 124.7 0 124.35 0 124.21" style="fill:#fff"/></g></g></svg>